<svg version="1.1" xmlns="http://www.w3.org/2000/svg" x="0" y="0" width="328.8" height="74.7" viewBox="0 0 328.8 74.7" enable-background="new 0 0 328.788 74.749" xml:space="preserve"><path fill="#00AEEF" d="M72.6 26.9c-5.6 0-12.4 1.1-17.8 6.2 -2.5 2.3-5.1 6-6.5 11.1 -0.6-0.8-1.2-1.6-2-2.4 -1.7-1.6-4.2-3.2-7.6-4 2.2-0.7 4.8-2.1 7-5.1 2-2.7 3.1-6.1 3.1-10.4 0-5.2-1.9-9.1-4.3-11.5 -4.2-4.1-10.2-4.6-14.8-4.6h-21.4L0 73.2h24.9c7 0 14.9-1 20.2-6.3 1.2-1.2 2.4-2.7 3.4-4.8 0.9 2.4 2.2 4.6 4.2 6.6 5.3 5.3 12 6 17.5 6 4.1 0 10.2-0.4 15.4-4.2 3.2-2.4 6.3-6.6 8.1-11.2l-14.6-1.2c-0.6 1.4-1.8 3.1-3.1 4 -1.8 1.2-4 1.3-5.7 1.3 -2.3 0-5-0.5-6.9-3.1 -1.2-1.7-1.9-4.5-1.8-6.7h33.5c0.6-5.3 0.4-15.1-5.6-21C85.9 29.3 80.2 26.9 72.6 26.9M22.2 18.3h3.2c2.2 0 4.9 0.1 6.8 1.6 0.9 0.8 2.1 2.3 2.1 5 0 2.2-0.8 4.6-2.3 6 -2.3 2.2-5.9 2.5-8.5 2.5h-3.1L22.2 18.3zM32.7 58.7c-2.4 2.2-7.1 2.5-10 2.5H17l2-16.3h6c1.4 0 6 0.1 8.2 2.3 1.5 1.5 1.8 3.6 1.8 5C35.1 56 33.6 57.9 32.7 58.7M62.9 44.8c0.4-2 1.4-3.7 2.5-4.9 1.2-1.2 3.3-2.7 6.8-2.7 1.8 0 4.3 0.5 5.9 1.8s2.7 3.7 2.9 5.8H62.9z"/><polygon fill="#00AEEF" points="149.5 28.4 130.2 28.4 113.7 44.9 119.3 0 104.8 0 95.7 73.2 110.1 73.2 112.7 53.6 129.2 73.2 147.8 73.2 127.5 49 "/><polygon fill="#00AEEF" points="147.9 73.2 162.3 73.2 167.9 28.4 153.4 28.4 "/><polygon fill="#00AEEF" points="199.2 28.4 198.3 28.4 190.3 28.4 192.9 5.5 178.5 5.5 175.9 28.4 171.7 28.4 170.2 40.5 174.5 40.5 170.3 73.2 184.8 73.2 188.9 40.5 196.5 40.5 197.8 40.5 213.3 40.5 191.7 73.2 236.3 73.2 238 61.2 218.9 61.2 240.4 28.4 "/><path fill="#00AEEF" d="M276.9 28.4l-2.8 23.5c-0.6 5.3-2.3 7.4-2.9 8 -1.6 1.7-4.3 2.5-6.6 2.5 -2.1 0-4.6-0.7-5.9-1.9 -1-0.9-1.9-2.5-1.9-4.9 0-1.1 0.2-2.1 0.5-4.9l2.6-22.3h-14.5l-2.7 22.8c-0.2 1.4-0.5 4.5-0.5 6.3 0 4.7 1.8 9.2 4.8 12.1 5 4.8 13 5.1 17.5 5.1 5.1 0 12.3-0.6 17.6-5.7 5-4.8 5.9-11.1 6.5-16.4l2.8-24.2H276.9zM322.9 27.3c-1.6 0-4.7 0.3-7.5 1.8 -2.1 1.2-4.2 3.1-5.6 5.9l1.3-6.6h-14.5l-5.5 44.8h14.5l2.4-19.1c0.6-4.8 1.8-9 4.3-11.5 1.4-1.3 3.8-2.7 7.4-2.7 2.8 0 4.9 0.8 6.3 1.5l2.8-13.5C327.3 27.6 325.3 27.3 322.9 27.3"/><polygon fill="#00AEEF" points="151.1 5.5 147.9 17.8 154.8 17.8 153.7 26.7 165.7 13.5 158.2 13.5 162.4 5.5 "/></svg>